<?xml version="1.0" standalone="no"?>
<!DOCTYPE svg PUBLIC "-//W3C//DTD SVG 20010904//EN"
 "http://www.w3.org/TR/2001/REC-SVG-20010904/DTD/svg10.dtd">
<svg version="1.0" xmlns="http://www.w3.org/2000/svg"
 width="128.000000pt" height="128.000000pt" viewBox="0 0 128.000000 128.000000"
 preserveAspectRatio="xMidYMid meet">
<metadata>
Created by potrace 1.11, written by Peter Selinger 2001-2013
</metadata>
<g transform="translate(0.000000,128.000000) scale(0.100000,-0.100000)"
fill="#000000" stroke="none">
<path d="M411 1144 c-134 -35 -187 -126 -190 -330 -1 -46 -4 -53 -25 -58 -25
-6 -66 -88 -66 -131 0 -22 28 -55 47 -55 6 0 32 -9 57 -20 36 -15 46 -24 46
-43 0 -48 -64 -78 -188 -86 -71 -5 -87 -9 -90 -23 -7 -36 145 -92 282 -104 39
-3 75 -9 79 -14 5 -4 10 -34 12 -66 5 -65 28 -97 65 -87 31 8 46 37 45 87 l-2
46 44 0 43 0 1 -42 c1 -24 1 -46 0 -50 0 -4 11 -16 25 -27 21 -17 30 -18 48
-9 32 17 36 27 36 95 0 53 3 63 20 68 17 5 34 25 55 63 1 1 40 -11 86 -28 46
-17 95 -28 109 -25 14 2 53 7 88 10 62 7 63 6 60 -17 -1 -12 -13 -39 -25 -58
-26 -39 -12 -61 21 -32 42 38 60 123 29 141 -9 5 -45 37 -80 72 -54 54 -74 67
-150 95 l-88 33 85 -2 c74 -2 90 1 124 22 54 34 78 91 78 192 1 71 -2 82 -27
115 -32 42 -74 62 -147 70 -80 9 -111 26 -159 90 -56 73 -111 103 -205 110
-38 3 -73 7 -79 8 -5 2 -34 -3 -64 -10z"/>
<path d="M1123 504 c-27 -19 -14 -26 65 -33 6 0 21 -10 32 -21 27 -27 26 -82
-4 -155 -25 -63 -24 -84 5 -111 17 -15 19 -15 25 0 3 9 1 22 -5 30 -8 10 -5
29 13 77 29 78 29 148 1 180 -35 38 -103 55 -132 33z"/>
</g>
</svg>
